<svg width="24" height="24" viewBox="0 0 24 24" fill="none" xmlns="http://www.w3.org/2000/svg">
<path fill-rule="evenodd" clip-rule="evenodd" d="M19 9.26567L12 4.599L5 9.26567V19.1953H19V9.26567ZM3.66795 7.75C3.25065 8.0282 3 8.49655 3 8.99808V19.6953C3 20.5237 3.67157 21.1953 4.5 21.1953H19.5C20.3284 21.1953 21 20.5237 21 19.6953V8.99808C21 8.49655 20.7493 8.0282 20.3321 7.75L12.8321 2.75C12.3282 2.4141 11.6718 2.4141 11.1679 2.75L3.66795 7.75Z" fill="#15181F"/>
<path fill-rule="evenodd" clip-rule="evenodd" d="M11 16.1953V19.1953H13V16.1953H11ZM10.5 14.1953C9.67157 14.1953 9 14.8669 9 15.6953V21.1953H15V15.6953C15 14.8669 14.3284 14.1953 13.5 14.1953H10.5Z" fill="#15181F"/>
</svg>
